<svg id="katman_1" data-name="katman 1" xmlns="http://www.w3.org/2000/svg" viewBox="0 0 255.67 255.7">
	<defs>
		<style>
			.cls-1{fill:#d8112a;}.cls-2{fill:#f0eeee;}
		</style>
	</defs>
	<g id="Oluowv.tif">
		<path class="cls-1" d="M255.67,252.89c0,2.3-.61,2.8-2.83,2.8q-62.64-.1-125.27-.05-62.38,0-124.77.06c-2.3,0-2.8-.62-2.8-2.84q.09-125,0-250C0,.5.61,0,2.83,0q125,.09,250,0c2.3,0,2.8.61,2.8,2.84Q255.58,127.87,255.67,252.89Z" />
	</g>
	<path class="cls-2" d="M146.05,164.8C129.7,180.59,99,183.28,78.58,163a49.59,49.59,0,0,1,.94-71.23c20.72-19.56,51-16.15,67.12-.6C128.23,84.3,112.25,87,99.07,101,91.25,109.4,87.94,119.71,89,131.09c1.23,13.84,8,24.56,20,31.57S133.31,169.85,146.05,164.8Z" />
	<path class="cls-2" d="M191,112.66c-3.15,4.38-6.2,8.85-9.51,13.11-1.29,1.66-1.1,2.68.07,4.23,3.37,4.42,6.57,9,10.18,13.95-6-1.95-11.5-3.69-17-5.56a2.35,2.35,0,0,0-3.23,1.07c-3.21,4.64-6.61,9.14-9.94,13.72-.85-.49-.48-1.24-.49-1.82,0-4.9-.11-9.81,0-14.71.06-2-.44-2.91-2.45-3.47-4.63-1.3-9.18-2.9-13.74-4.44-.66-.22-1.48-.2-2.12-1.12,5.42-1.77,10.7-3.59,16-5.19,1.75-.52,2.31-1.29,2.27-3.1-.12-5.55,0-11.11,0-17.43,1.11,1.47,1.84,2.39,2.53,3.34,2.69,3.7,5.43,7.36,8,11.13.88,1.28,1.68,1.41,3.06.95,5.27-1.75,10.58-3.36,15.88-5Z" />
</svg>
