<svg id="katman_1" data-name="katman 1" xmlns="http://www.w3.org/2000/svg" viewBox="0 0 255.56 255.66">
	<defs>
		<style>
			.cls-1{fill:#d8112a;}.cls-2{fill:#f0efef;}.cls-3{fill:#f0eeef;}.cls-4{fill:#2255a3;}.cls-5{fill:#d8152d;}
		</style>
	</defs>
	<g id="EWHDqE.tif">
		<path class="cls-1" d="M103.88.09h47.79c0,1,.06,2,.06,3q0,49.14,0,98.28c0,2.07.49,2.58,2.57,2.57,19.21-.09,38.41-.06,57.62-.05q21.82,0,43.65.05v47.79c-1,0-2,.06-3,.06q-49.14,0-98.28-.05c-2.07,0-2.58.5-2.57,2.57.09,19.54.06,39.08,0,58.62q0,21.32-.06,42.64H103.88c0-1-.06-2-.06-3q0-49.12.05-98.27c0-2.07-.49-2.58-2.57-2.57-19.37.09-38.75.06-58.12.05L0,151.72V103.93c1,0,2-.05,3-.05q49.14,0,98.28,0c2.08,0,2.58-.49,2.57-2.57-.09-19.7-.06-39.4-.05-59.11Q103.84,21.17,103.88.09Z" />
		<path class="cls-2" d="M151.67,255.56q0-21.31.06-42.64c0-19.54,0-39.08,0-58.62,0-2.07.5-2.57,2.57-2.57q49.14.11,98.28.05c1,0,2,0,3-.06V166.8H203.4c.6.69.89,1.07,1.22,1.4Q229.4,193,254.18,217.75c.39.39.67,1,1.37.94q0,5.76-.05,11.52c-.67-.61-1.36-1.21-2-1.85q-30-30-59.94-60a5.2,5.2,0,0,0-4.13-1.69c-6.73.09-13.47,0-20.2.06-.67,0-1.46-.34-2.25.49.7.64,1.4,1.22,2,1.86q42.07,42,84.13,84.12c.7.7,1.34,1.46,2,2.19l-23.62.16a12.51,12.51,0,0,0-1-1.34q-31.09-31.11-62.2-62.19c-.42-.41-.69-1.16-1.56-1v64.53Z" />
		<path class="cls-2" d="M103.88.09q0,21.08-.06,42.15c0,19.71,0,39.41.05,59.11,0,2.08-.49,2.58-2.57,2.57q-49.14-.11-98.28,0c-1,0-2,0-3,.05V88.85H52.4l-15-15L.11,36.7.05,25.44c.67.62,1.37,1.21,2,1.85Q32,57.19,61.83,87.12A5.73,5.73,0,0,0,66.4,89c6.65-.09,13.3,0,19.95,0,.68,0,1.46.34,2.37-.64a17,17,0,0,1-1.8-1.37Q56.2,56.23,25.52,25.52,12.92,12.91.4.22L24,.09c.14.72.76,1.06,1.22,1.51q31,31.07,62.1,62.11c.38.37.66.95,1.32.95a1.46,1.46,0,0,0,.19-.45q0-32.07,0-64.12Z" />
		<path class="cls-3" d="M255.52,103.93q-21.83,0-43.65-.05c-19.21,0-38.41,0-57.62.05-2.08,0-2.57-.5-2.57-2.57q.1-49.14,0-98.28c0-1,0-2-.06-3h15.08c0,.33-.06.66-.06,1q0,37.3,0,74.61c0,.45-.22,1,.39,1.5.45-.43.92-.85,1.36-1.3Q205.69,38.67,242.9,1.44c.4-.4.72-.89,1.08-1.33,3.86.17,7.74-.58,11.57.42-.88,0-1.22.79-1.72,1.29Q211.23,44.39,168.65,87c-.49.49-1.2.86-1.38,1.93h2.46c6.57,0,13.14-.06,19.7,0a5.19,5.19,0,0,0,4.12-1.7q29.92-30,59.94-60c.64-.64,1.34-1.23,2-1.84q0,11.83,0,23.66a11.94,11.94,0,0,0-.95.78q-18.89,18.87-37.76,37.75c-.31.32-.9.54-.64,1.22h39.39Z" />
		<path class="cls-3" d="M0,151.72l43.15.06c19.37,0,38.75,0,58.12-.05,2.08,0,2.58.5,2.57,2.57q-.11,49.14-.05,98.27c0,1,0,2,.06,3H88.8c0-.33.07-.66.07-1q0-37.29,0-74.59c0-.45.22-1-.38-1.5-.45.42-.92.85-1.37,1.3L12.66,254.22c-.4.4-.72.88-1.08,1.32-3.86-.16-7.75.58-11.58-.41,1-.06,1.34-.91,1.89-1.47q42.44-42.39,84.83-84.81a4.13,4.13,0,0,0,1.59-2.11H85.83c-6.57,0-13.14.06-19.71,0A5.18,5.18,0,0,0,62,168.4q-29.93,30-59.93,60c-.65.64-1.34,1.23-2,1.84q0-11.83,0-23.66c.31-.25.66-.48,1-.76Q19.86,187,38.69,168.12c.32-.32.85-.54.81-1.32H0Z" />
		<path class="cls-4" d="M244,.11c-.36.44-.68.93-1.08,1.33q-37.22,37.23-74.46,74.45c-.44.45-.91.87-1.36,1.3-.61-.52-.39-1-.39-1.5q0-37.3,0-74.61c0-.33,0-.66.06-1Z" />
		<path class="cls-4" d="M11.58,255.54c.36-.44.68-.92,1.08-1.32l74.45-74.44c.45-.45.92-.88,1.37-1.3.6.52.38,1.05.38,1.5q0,37.31,0,74.59c0,.34-.05.67-.07,1Z" />
		<path class="cls-4" d="M88.8.09q0,32.06,0,64.12a1.46,1.46,0,0,1-.19.45c-.66,0-.94-.58-1.32-.95q-31.07-31-62.1-62.11C24.78,1.15,24.16.81,24,.09Z" />
		<path class="cls-4" d="M166.75,255.57V191c.87-.16,1.14.59,1.56,1q31.11,31.08,62.2,62.19a12.51,12.51,0,0,1,1,1.34Z" />
		<path class="cls-5" d="M.4.22Q13,12.87,25.52,25.52,56.19,56.24,86.92,86.9a17,17,0,0,0,1.8,1.37c-.91,1-1.69.64-2.37.64-6.65,0-13.3,0-19.95,0a5.73,5.73,0,0,1-4.57-1.84Q32,57.15,2.06,27.29c-.64-.64-1.34-1.23-2-1.85Q0,13.51,0,1.58C0,1.09-.07.58.4.22Z" />
		<path class="cls-5" d="M255.16,255.41c-.67-.73-1.31-1.49-2-2.19Q211.09,211.15,169,169.1c-.64-.64-1.34-1.22-2-1.86.79-.83,1.58-.49,2.25-.49,6.73,0,13.47,0,20.2-.06a5.2,5.2,0,0,1,4.13,1.69q29.92,30,59.94,60c.64.64,1.33,1.24,2,1.85q0,11.79,0,23.59C255.54,254.36,255.7,255,255.16,255.41Z" />
		<path class="cls-1" d="M255.49,25.44c-.66.61-1.36,1.2-2,1.84q-30,30-59.94,60a5.19,5.19,0,0,1-4.12,1.7c-6.56-.1-13.13,0-19.7,0h-2.46c.18-1.07.89-1.44,1.38-1.93q42.57-42.6,85.18-85.17c.5-.5.84-1.28,1.72-1.29Z" />
		<path class="cls-1" d="M.06,230.22c.67-.61,1.36-1.2,2-1.84q30-30,59.93-60a5.18,5.18,0,0,1,4.12-1.7c6.57.1,13.14,0,19.71,0h2.48a4.13,4.13,0,0,1-1.59,2.11Q44.33,211.27,1.89,253.66c-.55.56-.93,1.41-1.89,1.47Z" />
		<path class="cls-4" d="M.11,36.7,37.37,73.84l15,15H0Q.06,62.78.11,36.7Z" />
		<path class="cls-4" d="M255.55,218.69c-.7.05-1-.55-1.37-.94Q229.39,193,204.62,168.2c-.33-.33-.62-.71-1.22-1.4h52.12Z" />
		<path class="cls-4" d="M255.52,88.85H216.13c-.26-.68.33-.9.64-1.22q18.87-18.88,37.76-37.75a11.94,11.94,0,0,1,.95-.78Q255.51,69,255.52,88.85Z" />
		<path class="cls-4" d="M0,166.8H39.5c0,.78-.49,1-.81,1.32Q19.87,187,1,205.8c-.29.28-.64.51-.95.76Q0,186.69,0,166.8Z" />
	</g>
</svg>
