<svg id="katman_1" 
    data-name="katman 1" 
    width="100%" height="100%"
    xmlns="http://www.w3.org/2000/svg" 
    viewBox="0 0 20 20">
	<g id="XmrB1L.tif">
		<path d="M4.3,1.17A1.74,1.74,0,0,1,4.85.29a1.41,1.41,0,0,1,1.71,0L6.79.5l8.4,8.41a1.39,1.39,0,0,1,.42,1.54,1.64,1.64,0,0,1-.39.59Q11,15.3,6.75,19.54A2.08,2.08,0,0,1,6,20H5.43c-.18-.09-.38-.17-.56-.28a1.57,1.57,0,0,1-.57-.89v-.47a2.44,2.44,0,0,1,.75-1.09l7.09-7.1a1.43,1.43,0,0,1,.23-.16,1.92,1.92,0,0,1-.23-.19Q8.58,6.28,5.05,2.73A2.49,2.49,0,0,1,4.3,1.64Z" />
	</g>
</svg>
