<svg width="100%" height="100%" viewBox="0 0 157 136" fill="none" xmlns="http://www.w3.org/2000/svg">
<g clip-path="url(#clip0_99_614)">
<path d="M157 89.7168C157 98.9574 156.992 108.198 156.977 117.439C156.977 127.944 148.638 136 138.006 136H128.288C131.823 127.054 132.137 117.162 129.176 108.012C126.215 98.8608 120.164 91.0184 112.053 85.8222L94.919 74.8522C93.7669 74.114 92.9558 72.9496 92.6641 71.615C92.3725 70.2803 92.6242 68.8848 93.3639 67.7352L105.44 48.9715C106.18 47.8227 107.346 47.0136 108.682 46.7218C110.019 46.4301 111.418 46.6796 112.57 47.4156L129.695 58.381C141.621 65.9981 151.099 76.8756 157 89.7168Z" fill="#2B4808"/>
<path d="M78.3708 113.517L52.9394 97.2205C46.8625 93.3237 41.8793 87.9486 38.4588 81.601C35.0383 75.2534 33.293 68.142 33.3871 60.936C33.4008 60.1031 33.1038 59.2947 32.5539 58.6678C32.0039 58.0409 31.2401 57.6402 30.4107 57.5433C21.5681 56.5886 13.2206 52.9929 6.46057 47.2269C6.00542 46.846 5.45728 46.5921 4.87187 46.4911C4.28647 46.3901 3.68469 46.4455 3.12773 46.6518C2.57077 46.858 2.07849 47.2077 1.70096 47.6654C1.32343 48.123 1.07411 48.6721 0.978353 49.257C-3.7286 78.1437 8.66176 108.462 34.8915 125.26L51.6842 136H68.7585L79.6353 119.105C79.9213 118.656 80.1155 118.155 80.2068 117.63C80.2981 117.106 80.2846 116.568 80.1671 116.049C80.0496 115.53 79.8304 115.039 79.5222 114.604C79.2139 114.17 78.8226 113.8 78.3708 113.517Z" fill="#2B4808"/>
<path d="M51.5319 35.7735C49.2388 39.3348 46.0142 42.2037 42.2062 44.0705C38.3982 45.9373 34.1514 46.7311 29.9243 46.3662C25.6971 46.0014 21.6501 44.4918 18.2201 42.0003C14.7901 39.5088 12.1073 36.1301 10.4614 32.2289C10.0991 31.3665 9.79083 30.4824 9.53848 29.5819C8.63604 26.4132 8.42033 23.0891 8.90569 19.8308C9.39105 16.5725 10.5664 13.4547 12.3534 10.6847C14.0021 8.06226 16.188 5.8173 18.7678 4.09712C26.765 -1.21527 36.6265 -1.381 44.5222 3.68281C55.1359 10.4867 58.3478 25.181 51.5319 35.7735Z" fill="#2B4808"/>
</g>
<defs>
<clipPath id="clip0_99_614">
<rect width="157" height="136" fill="white"/>
</clipPath>
</defs>
</svg>
