<svg width="100%" height="100%" viewBox="0 0 14 9" fill="none" xmlns="http://www.w3.org/2000/svg">
<g clip-path="url(#clip0_120_803)">
<path d="M7.19742 5.90967C7.22886 5.86193 7.26302 5.81612 7.29973 5.77248C8.82432 4.2093 10.3494 2.64812 11.875 1.08893C12.1361 0.821525 12.4367 0.707778 12.8007 0.819529C13.3716 0.994638 13.6016 1.71753 13.2391 2.20095C13.199 2.25351 13.1557 2.3035 13.1095 2.35061C11.3579 4.14361 9.60627 5.93628 7.85464 7.72862C7.52335 8.06736 7.12385 8.1372 6.75066 7.9167C6.6676 7.86496 6.59145 7.80241 6.52411 7.73061C4.77021 5.93661 3.0163 4.14145 1.2624 2.34513C0.848284 1.91908 0.863874 1.33139 1.29456 0.970193C1.44256 0.848697 1.62557 0.780596 1.81522 0.776447C2.00486 0.772297 2.19055 0.832333 2.34349 0.947244C2.41071 1.00068 2.47435 1.05868 2.53398 1.12086C4.04818 2.6694 5.5619 4.21861 7.07513 5.76849C7.10972 5.80341 7.14041 5.84232 7.19742 5.90967Z" fill="#582270"/>
</g>
<defs>
<clipPath id="clip0_120_803">
<rect width="12.4556" height="7.26579" fill="white" transform="translate(0.961182 0.776001)"/>
</clipPath>
</defs>
</svg>
