<svg width="100%" height="100%" viewBox="0 0 342 221" fill="none" xmlns="http://www.w3.org/2000/svg">
<g clip-path="url(#clip0_173_413)">
<path d="M197.732 168.231C193.135 137.498 177.384 113.849 151.156 97.1182C150.55 96.6861 150.036 96.1385 149.642 95.5069C149.249 94.8754 148.985 94.1724 148.865 93.4385C147.537 80.1563 143.556 67.2744 137.159 55.5532C136.844 54.8538 136.572 54.1358 136.344 53.4033L138.387 52.3834C153.158 45.2446 158.818 28.321 151.143 14.3052C143.467 0.289413 126.143 -4.13445 112.146 4.2447C110.879 4.95561 109.457 5.34376 108.004 5.37478C99.8598 5.67798 91.6325 5.22319 83.557 6.13276C45.9819 10.3775 19.9747 48.2352 29.4858 84.701C31.2252 91.3988 34.2621 97.7521 36.7607 104.422C-0.358926 134.094 -8.15832 182.867 7.93742 220.89H20.099C15.4901 211.53 12.6051 201.419 11.5817 191.039C8.60003 161.147 18.8704 136.078 40.8881 115.765C41.6474 115.062 42.4618 114.386 43.2625 113.752C43.6047 113.517 43.9596 113.301 44.3254 113.105L52.1386 120.519L49.6952 122.766C25.8001 144.017 16.7169 170.477 24.8476 201.32C26.5962 208.144 29.1835 214.727 32.5504 220.917H55.0099C55.4654 204.71 54.9132 188.462 55.2307 172.241C55.5206 157.343 62.8507 146.442 75.6058 139.166L98.935 162.594L110.986 149.805C117.341 152.866 122.713 157.639 126.496 163.585C130.28 169.532 132.323 176.415 132.396 183.459C132.461 195.945 132.461 208.431 132.396 220.917H143.44C143.44 208.845 143.536 196.772 143.44 184.713C143.233 165.323 134.771 150.563 117.916 140.847C114.189 138.697 116.328 135.569 115.997 132.909C115.887 131.999 117.377 130.676 118.344 129.904C121.519 127.506 124.818 125.288 128.517 122.683C166.189 140.309 176.653 188.669 152.482 220.917H166.051C173.826 207.663 177.415 192.374 176.349 177.051C174.472 148.592 160.336 127.355 135.226 113.491C134.039 112.843 133.266 111.423 132.3 110.362C133.311 109.343 134.416 108.42 135.599 107.606C140.831 104.657 145.165 106.131 149.942 109.535C178.668 130.001 193.453 165.598 185.75 199.253C184.078 206.718 181.616 213.985 178.406 220.931H190.568C197.907 204.396 200.392 186.12 197.732 168.231ZM63.8308 133.515C51.0757 143.41 44.3668 156.447 44.1735 172.599C43.9665 186.243 44.1735 199.901 44.1735 213.558V217.21C27.2772 195.077 27.6085 151.059 61.8844 127.63L66.8125 131.31L63.8308 133.515ZM71.782 113.008C71.5473 115.475 71.782 117.997 71.782 120.478L70.6363 121.208C64.0516 115.365 56.5836 110.183 51.0757 103.54C37.092 86.5064 34.5106 67.1159 43.9113 47.174C53.312 27.2322 69.6424 17.3233 91.5773 16.5378C94.559 16.4275 97.5545 16.5378 100.55 16.5378C100.76 16.5796 100.962 16.6589 101.144 16.7721C100.55 19.68 99.9427 22.5741 99.3905 25.4682C99.3341 26.0871 99.3341 26.7098 99.3905 27.3287H110.213C110.986 19.7902 114.561 14.2225 121.891 11.8245C124.895 10.7288 128.165 10.5883 131.252 11.4224C134.34 12.2564 137.092 14.0241 139.133 16.4827C141.339 18.7047 142.813 21.546 143.358 24.6268C143.903 27.7076 143.494 30.8812 142.184 33.7233C141.062 36.7765 139.013 39.4035 136.323 41.237C133.632 43.0705 130.435 44.0187 127.178 43.9492C114.755 44.1421 102.331 43.9492 89.907 44.0181C78.4357 44.1008 71.6164 50.7435 71.782 62.1959C71.782 65.3105 71.1746 67.171 68.2343 68.9626C59.5101 74.2409 57.4946 87.2506 65.0318 94.3205C70.8433 99.7918 72.4308 105.649 71.782 113.008ZM135.461 96.0432C130.85 97.4214 126.309 99.0614 121.381 100.715C121.381 103.044 121.381 105.428 121.381 107.799C121.397 109.555 121.063 111.298 120.399 112.924C119.735 114.551 118.753 116.029 117.51 117.274C116.268 118.518 114.79 119.503 113.163 120.171C111.536 120.839 109.792 121.178 108.032 121.167C103.449 121.263 98.8659 121.167 94.0345 121.167V132.192H104.415C105.796 138.173 104.816 142.928 99.0592 146.125C93.9102 140.998 88.5956 135.803 83.4328 130.456C82.8839 129.48 82.6706 128.352 82.8254 127.245C82.8254 119.899 82.6874 112.553 82.8254 105.194C82.9539 102.551 82.4987 99.9115 81.492 97.4632C80.4853 95.015 78.9518 92.8176 77 91.0268C75.6196 89.7726 73.8803 88.6288 73.2591 87.0577C72.4584 85.0042 71.8786 82.2755 72.5689 80.4012C73.1486 78.8715 75.7438 77.8654 77.635 77.2039C79.0154 76.694 80.7824 77.0937 82.7978 77.0937C82.7978 71.6775 82.7978 66.7575 82.7978 61.8376C82.7978 56.9176 84.7304 55.126 89.41 55.126C100.095 55.126 110.793 55.0433 121.477 55.2087C122.211 55.2605 122.925 55.4695 123.57 55.8215C124.216 56.1734 124.778 56.6601 125.218 57.2483C131.909 67.998 136.15 80.0849 137.642 92.653C137.877 94.6099 137.38 95.4644 135.461 96.0432ZM85.5863 165.998C81.8177 164.344 78.1734 162.387 74.1702 160.403L69.2697 170.05C69.5854 170.306 69.9335 170.519 70.305 170.684C76.4064 172.214 77.4832 176.196 77.3589 182.136C77.0828 195.036 77.1105 207.935 77.1519 220.835H88.1953C88.1953 204.012 88.2183 187.189 88.2643 170.367C88.3746 169.444 88.1704 168.511 87.6845 167.719C87.1986 166.926 86.4595 166.32 85.5863 165.998Z" fill="#86EE03"/>
<path d="M165.72 0.0966797V43.7978H342V0.0966797H165.72ZM198.546 32.8139H176.901V11.2046H198.546V32.8139ZM231.552 32.8139H209.907V11.1357H231.552V32.8139ZM264.682 32.8139H243.037V11.1357H264.682V32.8139ZM297.813 32.9104H276.195V11.2321H297.84L297.813 32.9104ZM330.943 32.8139H309.298V11.1357H330.943V32.8139Z" fill="#86EE03"/>
<path d="M254.164 121.346V198.109H331.039V121.346H254.164ZM320.01 187.167H265.235V132.468H320.01V187.167Z" fill="#86EE03"/>
<path d="M254.177 209.63V220.945H265.221V220.587H319.982V220.986H331.026V209.617L254.177 209.63Z" fill="#86EE03"/>
<path d="M198.891 55.1948H297.826V65.8479H198.891V55.1948Z" fill="#86EE03"/>
<path d="M198.878 77.1763H297.854V87.9258H198.878V77.1763Z" fill="#86EE03"/>
<path d="M209.465 110.101H198.96V99.3647H209.465V110.101Z" fill="#86EE03"/>
<path d="M221.006 99.3096H231.663V109.908H221.006V99.3096Z" fill="#86EE03"/>
<path d="M253.763 110.045H243.093V99.3369H253.763V110.045Z" fill="#86EE03"/>
<path d="M265.11 99.2266H275.781V109.976H265.11V99.2266Z" fill="#86EE03"/>
<path d="M287.239 99.3096H297.826V109.949H287.239V99.3096Z" fill="#86EE03"/>
<path d="M121.367 71.512C121.397 72.6129 121.096 73.6975 120.503 74.6262C119.91 75.5548 119.052 76.2847 118.04 76.722C117.027 77.1592 115.907 77.2837 114.823 77.0794C113.739 76.875 112.741 76.3512 111.958 75.5754C111.175 74.7997 110.643 73.8076 110.429 72.727C110.216 71.6464 110.333 70.5269 110.763 69.5128C111.193 68.4987 111.917 67.6364 112.843 67.0372C113.769 66.438 114.853 66.1293 115.956 66.151C117.375 66.1788 118.729 66.7513 119.737 67.7496C120.744 68.7479 121.328 70.0952 121.367 71.512Z" fill="#86EE03"/>
<path d="M272.772 163.476L280.447 155.442C282.49 158.129 284.409 160.665 286.493 163.435C294.955 154.959 302.699 147.214 310.499 139.386L318.05 146.883L287.128 177.781L272.772 163.476Z" fill="#86EE03"/>
</g>
<defs>
<clipPath id="clip0_173_413">
<rect width="342" height="221" fill="white"/>
</clipPath>
</defs>
</svg>
