<svg width="51" height="51" viewBox="0 0 38 38" fill="none" xmlns="http://www.w3.org/2000/svg">
<rect width="38" height="38" rx="7" fill="#73CE00"/>
<g clip-path="url(#clip0_312_26)">
<path d="M36.7199 24.3262C35.9029 25.1515 35.0858 25.9768 34.2687 26.8021C33.4517 27.6275 32.6346 28.4528 31.8175 29.2781C31.6458 29.445 31.5043 29.641 31.3995 29.8572C31.2809 30.142 31.2645 30.4597 31.353 30.7555C31.4415 31.0513 31.6294 31.3067 31.8843 31.4775C32.4657 31.8709 33.1439 31.7994 33.6886 31.2519C35.1294 29.8067 36.566 28.3565 37.9986 26.9012V23.8448C37.763 23.817 37.5242 23.8462 37.3019 23.9299C37.0795 24.0136 36.8801 24.1494 36.7199 24.3262ZM28.9251 6.58207C27.0813 4.72512 24.4258 4.46377 22.3763 6.0071C21.5797 6.60682 20.9138 7.38262 20.2097 8.10614C20.0027 8.31659 19.8488 8.3331 19.5928 8.20655C18.054 7.45002 16.7985 7.66872 15.5906 8.89431C13.3345 11.1676 11.0794 13.4459 8.82524 15.7292C8.6088 15.933 8.41601 16.161 8.25057 16.4088C7.58874 17.4775 7.55606 18.5848 8.14026 19.6949C8.29823 19.9961 8.27644 20.1873 8.02043 20.4239C7.51929 20.8833 7.05356 21.3867 6.57694 21.8682C4.47844 24.0043 4.47027 27.069 6.57694 29.1955C9.48207 32.13 12.3872 35.0644 15.2923 37.9988H19.1298L8.50795 27.2698C7.4512 26.1969 7.4512 24.8737 8.49841 23.7994C8.98321 23.3028 9.47481 22.8118 9.99637 22.2863C10.168 22.3854 10.3 22.4665 10.4362 22.5394C11.035 22.8582 11.7197 22.9733 12.3885 22.8678C13.0572 22.7622 13.6744 22.4415 14.1484 21.9535C16.7031 19.4005 19.246 16.8315 21.7771 14.2464C22.8448 13.1557 23.0136 11.6632 22.2715 10.3551C22.1462 10.1336 22.1434 9.99472 22.3355 9.8049C22.7985 9.36611 23.2329 8.89706 23.6891 8.45002C24.6301 7.53117 25.9101 7.51054 26.8865 8.39362C26.9601 8.45964 27.0227 8.53117 27.0976 8.6027L38 19.6137V15.7458C34.9741 12.6921 31.9492 9.63754 28.9251 6.58207ZM19.665 12.5092C18.4585 13.7288 17.251 14.9484 16.0427 16.168C14.8343 17.3877 13.6269 18.6073 12.4203 19.8269C11.9601 20.2905 11.7626 20.3097 11.3663 19.787C11.0499 19.3358 10.7642 18.8633 10.5111 18.373C10.3749 18.1226 10.4798 17.9149 10.6691 17.7265C11.2969 17.1048 11.9124 16.4775 12.532 15.853L17.4113 10.9232C17.9178 10.4115 17.926 10.3991 18.5701 10.7485C18.9445 10.9433 19.2997 11.1736 19.631 11.4363C20.1375 11.8585 20.1294 12.0442 19.6705 12.5092H19.665ZM31.0399 16.4693C30.4952 15.9438 29.6782 15.9562 29.1049 16.5298C27.4149 18.2244 25.7263 19.9218 24.0663 21.6426C23.8469 21.8952 23.705 22.2068 23.6577 22.5394C23.5692 23.0896 23.9124 23.6123 24.4094 23.8544C24.6746 23.9771 24.9711 24.0125 25.2572 23.9557C25.5434 23.899 25.8046 23.7529 26.0041 23.538C26.8484 22.7004 27.6804 21.8489 28.5179 21.003C29.3554 20.157 30.1929 19.3207 31.0209 18.4624C31.5915 17.8695 31.5874 16.9975 31.0454 16.4693H31.0399ZM28.9673 35.6165C28.9455 34.721 28.9306 33.8283 28.9006 32.9273C28.9016 32.661 28.8234 32.4006 28.676 32.1798C28.5286 31.959 28.3188 31.7881 28.074 31.6894C27.8497 31.5803 27.5985 31.5407 27.352 31.5757C27.1055 31.6107 26.8748 31.7187 26.6891 31.8861C26.5184 32.0252 26.3838 32.2043 26.2969 32.4077C26.2101 32.6112 26.1736 32.833 26.1907 33.0539C26.222 34.2189 26.2438 35.384 26.271 36.5779C25.8039 36.5669 25.3695 36.5504 24.9351 36.5477C24.103 36.5408 23.4862 37.0979 23.4562 37.8599C23.4562 37.9067 23.4562 37.9521 23.4562 37.9975H29.0082C29.0082 37.9576 29.0082 37.9177 29.0082 37.8764C29.0082 37.1254 28.9809 36.3716 28.9673 35.6165ZM21.2283 25.2464C21.2155 24.9504 21.1248 24.6631 20.9655 24.4143C20.8063 24.1671 20.5685 23.982 20.2913 23.8895C20.0141 23.797 19.714 23.8026 19.4403 23.9053C19.1637 23.999 18.9249 24.1814 18.7602 24.4247C18.5955 24.668 18.514 24.9589 18.5279 25.2533C18.5456 26.4321 18.5783 27.611 18.6055 28.8379C18.1167 28.8255 17.6809 28.809 17.2438 28.8076C16.4199 28.8076 15.8057 29.373 15.7894 30.1447C15.773 30.9163 16.3436 31.5133 17.1811 31.5436C18.0676 31.5752 18.9514 31.5917 19.8434 31.6082C20.783 31.6261 21.3618 31.058 21.3414 30.1116C21.3196 28.4899 21.2855 26.8709 21.2256 25.2464H21.2283Z" fill="black"/>
<path d="M28.9251 6.58207C27.0813 4.72512 24.4258 4.46377 22.3763 6.0071C21.5797 6.60682 20.9138 7.38262 20.2097 8.10614C20.0027 8.31659 19.8488 8.3331 19.5928 8.20655C18.054 7.45002 16.7985 7.66872 15.5906 8.89431C13.3345 11.1676 11.0794 13.4459 8.82524 15.7292C8.6088 15.933 8.41601 16.161 8.25057 16.4088C7.58874 17.4775 7.55606 18.5848 8.14026 19.6949C8.29823 19.9961 8.27644 20.1873 8.02043 20.4239C7.51929 20.8833 7.05356 21.3867 6.57694 21.8682C4.47844 24.0043 4.47027 27.069 6.57694 29.1955C9.48207 32.13 12.3872 35.0644 15.2923 37.9988H19.1298L8.50795 27.2698C7.4512 26.1969 7.4512 24.8737 8.49841 23.7994C8.98321 23.3028 9.47481 22.8118 9.99637 22.2863C10.168 22.3854 10.3 22.4665 10.4362 22.5394C11.035 22.8582 11.7197 22.9733 12.3885 22.8678C13.0572 22.7622 13.6744 22.4415 14.1484 21.9535C16.7031 19.4005 19.246 16.8315 21.7771 14.2464C22.8448 13.1557 23.0136 11.6632 22.2715 10.3551C22.1462 10.1336 22.1434 9.99472 22.3355 9.8049C22.7985 9.36611 23.2329 8.89706 23.6891 8.45002C24.6301 7.53117 25.9101 7.51054 26.8865 8.39362C26.9601 8.45964 27.0227 8.53117 27.0976 8.6027L38 19.6137V15.7458C34.9741 12.6921 31.9492 9.63754 28.9251 6.58207ZM19.665 12.5092C18.4585 13.7288 17.251 14.9484 16.0427 16.168C14.8343 17.3877 13.6269 18.6073 12.4203 19.8269C11.9601 20.2905 11.7626 20.3097 11.3663 19.787C11.0499 19.3358 10.7642 18.8633 10.5111 18.373C10.3749 18.1226 10.4798 17.9149 10.6691 17.7265C11.2969 17.1048 11.9124 16.4775 12.532 15.853L17.4113 10.9232C17.9178 10.4115 17.926 10.3991 18.5701 10.7485C18.9445 10.9433 19.2997 11.1736 19.631 11.4363C20.1375 11.8585 20.1294 12.0442 19.6705 12.5092H19.665Z" fill="white"/>
<path d="M21.3414 30.1116C21.3563 31.0607 20.7776 31.6247 19.8434 31.6082C18.9555 31.5917 18.0731 31.5752 17.1811 31.5436C16.3436 31.5133 15.773 30.9301 15.7894 30.1447C15.8057 29.3592 16.4199 28.8035 17.2438 28.8076C17.6795 28.8076 18.1153 28.8255 18.6055 28.8379C18.5783 27.611 18.5456 26.4321 18.5279 25.2533C18.514 24.9589 18.5955 24.668 18.7602 24.4247C18.9249 24.1814 19.1637 23.999 19.4403 23.9053C19.714 23.8026 20.0141 23.797 20.2913 23.8895C20.5685 23.982 20.8063 24.1671 20.9655 24.4143C21.1248 24.6631 21.2155 24.9504 21.2283 25.2464C21.2855 26.8709 21.3196 28.4899 21.3414 30.1116Z" fill="white"/>
<path d="M29.0109 37.8751C29.0109 37.9163 29.0109 37.9562 29.0109 37.9961H23.4535C23.4535 37.9507 23.4535 37.9053 23.4535 37.8586C23.4834 37.091 24.1003 36.5394 24.9324 36.5463C25.3668 36.5463 25.8012 36.5656 26.2683 36.5766C26.241 35.3826 26.2192 34.2176 26.1879 33.0525C26.1709 32.8316 26.2074 32.6098 26.2942 32.4064C26.381 32.2029 26.5156 32.0238 26.6863 31.8847C26.8721 31.7174 27.1028 31.6094 27.3493 31.5744C27.5958 31.5394 27.847 31.5789 28.0713 31.688C28.3161 31.7868 28.5258 31.9577 28.6732 32.1784C28.8207 32.3992 28.8989 32.6597 28.8979 32.926C28.9278 33.8228 28.9428 34.7141 28.9646 35.6151C28.9809 36.3716 29.0082 37.1254 29.0109 37.8751Z" fill="white"/>
<path d="M31.0209 18.4624C30.1956 19.3207 29.35 20.1571 28.5125 21.003C27.675 21.8489 26.8429 22.7004 25.9986 23.5381C25.7992 23.7529 25.5379 23.899 25.2518 23.9558C24.9657 24.0125 24.6691 23.9771 24.404 23.8544C23.9069 23.6124 23.5638 23.0883 23.6523 22.5394C23.6995 22.2068 23.8415 21.8952 24.0608 21.6426C25.7263 19.9218 27.4149 18.2245 29.0994 16.5298C29.67 15.9562 30.4939 15.9438 31.0345 16.4693C31.5751 16.9947 31.5915 17.8695 31.0209 18.4624Z" fill="white"/>
<path d="M38 23.8448V26.9026C36.5683 28.3579 35.1316 29.8081 33.69 31.2533C33.1453 31.8035 32.4644 31.8723 31.8856 31.4789C31.6307 31.3081 31.4428 31.0527 31.3543 30.7569C31.2658 30.4611 31.2823 30.1434 31.4008 29.8586C31.5057 29.6424 31.6472 29.4464 31.8189 29.2795C32.6278 28.4459 33.453 27.6289 34.2701 26.8035C35.0872 25.9782 35.9042 25.1529 36.7213 24.3276C36.8813 24.1506 37.0807 24.0145 37.303 23.9305C37.5253 23.8466 37.7642 23.8172 38 23.8448Z" fill="white"/>
</g>
<defs>
<clipPath id="clip0_312_26">
<rect width="33" height="33" fill="white" transform="translate(5 5.00012)"/>
</clipPath>
</defs>
</svg>
