<svg width="51" height="51" viewBox="0 0 38 38" fill="none" xmlns="http://www.w3.org/2000/svg">
<rect width="38" height="38" rx="7" fill="#582270"/>
<path d="M23.5222 19.5068C23.5294 20.3629 23.2748 21.2018 22.7906 21.917C22.3064 22.6323 21.6144 23.1915 20.8025 23.5239C19.9906 23.8562 19.0955 23.9466 18.2306 23.7836C17.3658 23.6206 16.5703 23.2116 15.9451 22.6084C15.3199 22.0052 14.8932 21.2351 14.7192 20.3959C14.5452 19.5566 14.6317 18.686 14.9677 17.8945C15.3037 17.1031 15.8741 16.4266 16.6065 15.9508C17.3388 15.475 18.2002 15.2214 19.0811 15.2222C20.2533 15.2224 21.3779 15.6729 22.2097 16.4755C23.0416 17.2781 23.5134 18.3676 23.5222 19.5068Z" fill="white"/>
<path d="M19.0218 6C11.1824 6.29759 4.80631 9.14962 0 14.7702V24.3927C9.83921 35.879 28.1799 35.8655 38 24.3752V14.781C33.2251 9.17655 26.8722 6.31914 19.0218 6ZM21.9034 28.015C13.9862 29.0357 7.58963 26.2779 2.71507 20.0514C2.45434 19.7175 2.3779 19.4737 2.66592 19.0846C10.9804 7.79093 27.8618 8.22991 35.6398 19.5842C32.215 24.2769 27.7171 27.2663 21.9034 28.015Z" fill="white"/>
</svg>
