<svg width="17" height="17" viewBox="0 0 17 17" fill="none" xmlns="http://www.w3.org/2000/svg">
<g clip-path="url(#clip0_99_526)">
<path d="M8.50142 4.2146C9.34913 4.21487 10.1777 4.46654 10.8824 4.93779C11.587 5.40903 12.1361 6.07868 12.46 6.862C12.784 7.64533 12.8684 8.50715 12.7024 9.33843C12.5365 10.1697 12.1277 10.9331 11.5279 11.532C10.928 12.131 10.1639 12.5385 9.33235 12.7032C8.50078 12.8678 7.63906 12.7821 6.8562 12.4569C6.07335 12.1317 5.40453 11.5817 4.93436 10.8763C4.46419 10.171 4.21379 9.34204 4.21485 8.49436C4.21502 7.93182 4.32606 7.37484 4.54163 6.85524C4.75719 6.33564 5.07305 5.86362 5.47115 5.46615C5.86925 5.06869 6.34178 4.75357 6.86173 4.53883C7.38168 4.32408 7.93886 4.2139 8.50142 4.2146Z" fill="#582270"/>
<path d="M3.15016 14.7218C2.72722 14.7039 2.48516 14.5582 2.35216 14.2643C2.21916 13.9704 2.24909 13.6798 2.47053 13.4457C2.85357 13.0401 3.24792 12.6451 3.65356 12.2608C3.94683 11.9835 4.42031 12.0121 4.70426 12.2973C4.98821 12.5826 5.01548 13.0461 4.74283 13.336C4.35713 13.7463 3.9588 14.1466 3.54584 14.529C3.42281 14.6434 3.23129 14.6846 3.15016 14.7218Z" fill="#582270"/>
<path d="M14.757 13.9358C14.7038 14.2683 14.5615 14.507 14.2762 14.6407C13.9909 14.7743 13.691 14.7557 13.4563 14.535C13.0418 14.1457 12.6394 13.7434 12.2493 13.328C11.978 13.0381 12.0172 12.5693 12.3005 12.2907C12.5838 12.0121 13.0407 11.9808 13.3259 12.2468C13.7458 12.6391 14.151 13.0465 14.5416 13.469C14.6526 13.588 14.6872 13.7782 14.757 13.9358Z" fill="#582270"/>
<path d="M3.05111 2.28486C3.15364 2.28187 3.25567 2.30039 3.35061 2.33921C3.44556 2.37804 3.53132 2.43631 3.60239 2.51028C3.97146 2.87668 4.34187 3.24175 4.70429 3.61347C4.84276 3.759 4.91893 3.95285 4.91659 4.15371C4.91424 4.35458 4.83356 4.54659 4.69173 4.68885C4.5499 4.83111 4.35813 4.91237 4.15726 4.91533C3.9564 4.91829 3.76231 4.84271 3.61635 4.70469C3.23598 4.33585 2.86136 3.96036 2.49251 3.57823C2.26308 3.34017 2.22651 3.05157 2.34687 2.74834C2.40422 2.60936 2.50205 2.49085 2.62764 2.40819C2.75323 2.32553 2.90077 2.28256 3.05111 2.28486Z" fill="#582270"/>
<path d="M14.7165 3.05886C14.7176 3.15899 14.6984 3.2583 14.66 3.35077C14.6216 3.44324 14.5648 3.52695 14.493 3.59682C14.1273 3.96522 13.7615 4.33561 13.3905 4.69802C13.3201 4.77468 13.235 4.8363 13.1401 4.87917C13.0453 4.92204 12.9428 4.94527 12.8388 4.94745C12.7348 4.94963 12.6314 4.93073 12.5348 4.89188C12.4383 4.85303 12.3506 4.79503 12.2771 4.72139C12.2036 4.64774 12.1458 4.55998 12.1071 4.46338C12.0684 4.36678 12.0497 4.26336 12.0521 4.15933C12.0545 4.05531 12.0779 3.95284 12.1209 3.85811C12.164 3.76337 12.2257 3.67834 12.3025 3.60813C12.6696 3.23308 13.0394 2.86003 13.4177 2.49563C13.6605 2.26156 13.9544 2.21767 14.261 2.35266C14.5675 2.48765 14.7078 2.73236 14.7165 3.05886Z" fill="#582270"/>
<path d="M7.73004 1.53743C7.73004 1.28274 7.72605 1.02806 7.73004 0.77404C7.7265 0.671285 7.7436 0.568863 7.78034 0.472836C7.81709 0.376809 7.87272 0.289128 7.94395 0.214982C8.01518 0.140837 8.10057 0.0817341 8.19505 0.0411716C8.28953 0.000609061 8.39118 -0.0205887 8.494 -0.021167C8.59682 -0.0217454 8.69871 -0.00169262 8.79364 0.0378045C8.88857 0.0773015 8.97461 0.13544 9.04667 0.20878C9.11873 0.282119 9.17535 0.369169 9.21317 0.464776C9.25099 0.560384 9.26924 0.662607 9.26685 0.765395C9.2735 1.28496 9.2735 1.80475 9.26685 2.32475C9.2693 2.42755 9.25109 2.52978 9.21332 2.62541C9.17554 2.72105 9.11897 2.80813 9.04694 2.8815C8.97491 2.95488 8.88889 3.01306 8.79397 3.0526C8.69905 3.09215 8.59717 3.11225 8.49434 3.11171C8.39152 3.11118 8.28985 3.09002 8.19535 3.0495C8.10084 3.00897 8.01543 2.9499 7.94417 2.87578C7.87291 2.80166 7.81724 2.71399 7.78046 2.61797C7.74368 2.52196 7.72653 2.41953 7.73004 2.31677C7.72605 2.05677 7.73004 1.79544 7.73004 1.53743Z" fill="#582270"/>
<path d="M1.55549 7.73029C1.81018 7.73029 2.06421 7.7263 2.31891 7.73029C2.52279 7.72976 2.71853 7.81024 2.86307 7.95403C3.00761 8.09781 3.08911 8.29313 3.08964 8.497C3.09017 8.70087 3.00969 8.89661 2.86589 9.04114C2.7221 9.18568 2.52678 9.26717 2.3229 9.2677C1.80287 9.27347 1.28306 9.27347 0.763478 9.2677C0.559773 9.26823 0.3642 9.18782 0.219785 9.04416C0.075369 8.9005 -0.0060601 8.70535 -0.0065892 8.50166C-0.00711831 8.29796 0.0732959 8.10239 0.216963 7.95798C0.360631 7.81357 0.555783 7.73215 0.759488 7.73162C1.02482 7.72563 1.29016 7.73029 1.55549 7.73029Z" fill="#582270"/>
<path d="M15.4646 7.73029C15.7187 7.73029 15.9733 7.7263 16.2274 7.73029C16.3302 7.72689 16.4326 7.74415 16.5286 7.78104C16.6246 7.81793 16.7122 7.87371 16.7862 7.94507C16.8603 8.01643 16.9192 8.10192 16.9597 8.19648C17.0001 8.29104 17.0211 8.39275 17.0215 8.49558C17.0219 8.59842 17.0017 8.70028 16.962 8.79516C16.9223 8.89003 16.864 8.97598 16.7905 9.04791C16.717 9.11984 16.6299 9.1763 16.5341 9.21394C16.4384 9.25158 16.3362 9.26964 16.2334 9.26704C15.7133 9.27369 15.1935 9.27369 14.6739 9.26704C14.474 9.25994 14.2847 9.17516 14.1462 9.03072C14.0078 8.88628 13.9311 8.69356 13.9325 8.49349C13.9339 8.29343 14.0132 8.10179 14.1537 7.95928C14.2941 7.81677 14.4846 7.73462 14.6846 7.73029C14.9446 7.7263 15.2046 7.73029 15.4646 7.73029Z" fill="#582270"/>
<path d="M7.72999 15.456C7.72999 15.196 7.726 14.936 7.72999 14.6766C7.7273 14.5738 7.74526 14.4715 7.78281 14.3758C7.82036 14.28 7.87675 14.1928 7.94862 14.1192C8.02049 14.0457 8.1064 13.9873 8.20124 13.9475C8.29609 13.9078 8.39795 13.8874 8.5008 13.8878C8.60364 13.8881 8.70538 13.909 8.79998 13.9494C8.89459 13.9897 8.98013 14.0486 9.05156 14.1226C9.12299 14.1966 9.17884 14.2842 9.21581 14.3801C9.25278 14.4761 9.27012 14.5785 9.2668 14.6813C9.27345 15.196 9.27345 15.7102 9.2668 16.224C9.2695 16.3269 9.25153 16.4293 9.21394 16.5251C9.17635 16.6209 9.11992 16.7082 9.04799 16.7819C8.97605 16.8555 8.89007 16.9139 8.79515 16.9537C8.70022 16.9935 8.59827 17.0139 8.49534 17.0136C8.39241 17.0132 8.29058 16.9923 8.1959 16.9519C8.10121 16.9115 8.01559 16.8526 7.9441 16.7785C7.87261 16.7045 7.81671 16.6168 7.7797 16.5208C7.7427 16.4247 7.72534 16.3222 7.72866 16.2194C7.72667 15.9647 7.72999 15.7107 7.72999 15.456Z" fill="#582270"/>
</g>
<defs>
<clipPath id="clip0_99_526">
<rect width="17" height="17" fill="white"/>
</clipPath>
</defs>
</svg>
