<svg id="katman_1" data-name="katman 1" 
    width="18px" height="18px"
    fill="#AAFF15"
    xmlns="http://www.w3.org/2000/svg" viewBox="0 0 20 20">
	<g id="rBzZfh.tif">
		<path d="M0,9.22C0,8.82.05,8.43.12,8a9.92,9.92,0,0,1,3-5.55A10.09,10.09,0,0,1,7.45.05.68.68,0,0,1,8.18.3a.66.66,0,0,1,0,.78,15,15,0,0,0-.92,1.47A7.36,7.36,0,0,0,6.6,6.79,7.41,7.41,0,0,0,8,10.21a7.52,7.52,0,0,0,7.17,3,7.36,7.36,0,0,0,3.65-1.61,1.58,1.58,0,0,1,.36-.2.6.6,0,0,1,.65.13.62.62,0,0,1,.18.63,10.18,10.18,0,0,1-8.24,7.67c-.36.07-.73.09-1.1.14H9.43l-.71-.09A9.93,9.93,0,0,1,3.46,17.5,10,10,0,0,1,.07,11.34c0-.28-.08-.56-.11-.83Z" />
	</g>
</svg>
