<svg width="18" height="19" viewBox="0 0 18 19" fill="none" xmlns="http://www.w3.org/2000/svg">
<path d="M13.2948 12.61L15.7265 15.1862C16.3783 15.8773 17.0301 16.5681 17.682 17.2587C18.0043 17.6012 18.0845 18.03 17.9095 18.4171C17.826 18.6005 17.6904 18.754 17.5201 18.8576C17.3499 18.9613 17.153 19.0102 16.955 18.9982C16.659 18.9789 16.4337 18.8266 16.2332 18.614C14.8172 17.1111 13.4001 15.6091 11.9817 14.108C11.9405 14.0583 11.9027 14.0056 11.8687 13.9505C8.1093 16.5795 3.46988 15.242 1.30802 11.9881C0.279942 10.4555 -0.165408 8.59381 0.0551894 6.75096C0.275787 4.90811 1.14724 3.21017 2.5067 1.97441C5.32331 -0.608509 9.46693 -0.638232 12.3317 1.77378C13.0948 2.41964 13.7253 3.21272 14.1869 4.10752C14.6485 5.00231 14.9322 5.9812 15.0217 6.98802C15.1112 7.99483 15.0047 9.00974 14.7084 9.97451C14.412 10.9393 13.9317 11.8349 13.2948 12.61ZM7.52381 13.3375C10.5774 13.3486 13.0652 10.8229 13.0834 7.69013C13.1038 4.58408 10.6102 2.0242 7.55079 2.00859C6.81553 1.99839 6.08558 2.13693 5.40322 2.41621C4.72086 2.69548 4.09964 3.10993 3.57553 3.63557C3.05142 4.1612 2.63483 4.78758 2.34988 5.47842C2.06494 6.16927 1.9173 6.91086 1.91552 7.66025C1.91373 8.40965 2.05784 9.15196 2.33949 9.8442C2.62114 10.5364 3.03474 11.1649 3.55634 11.6931C4.07795 12.2213 4.69719 12.6388 5.37821 12.9215C6.05923 13.2041 6.78851 13.3463 7.52381 13.3397V13.3375Z" fill="#582270"/>
</svg>
