<svg width="100%" height="100%" viewBox="0 0 28 36" fill="none" xmlns="http://www.w3.org/2000/svg">
<path d="M24.8268 35.1402C24.8781 35.1923 24.913 35.2586 24.9271 35.3308C24.9412 35.4029 24.9339 35.4776 24.9062 35.5456C24.8784 35.6135 24.8314 35.6716 24.771 35.7126C24.7107 35.7536 24.6397 35.7755 24.567 35.7758H17.2805C17.1829 35.7758 17.0892 35.7365 17.0201 35.6666C16.9511 35.5967 16.9123 35.502 16.9123 35.4031V28.0303C16.9125 27.9568 16.9342 27.8849 16.9747 27.8239C17.0152 27.7628 17.0726 27.7152 17.1398 27.6871C17.2069 27.659 17.2808 27.6516 17.3521 27.6659C17.4233 27.6802 17.4889 27.7155 17.5404 27.7674L19.1219 29.3677L19.2146 29.274C20.608 27.8598 21.3906 25.9442 21.3906 23.9472C21.3906 21.9502 20.608 20.0347 19.2146 18.6205L16.6366 16.012C16.5507 15.9253 16.4825 15.8224 16.436 15.709C16.3894 15.5956 16.3655 15.4741 16.3655 15.3513C16.3655 15.2285 16.3894 15.107 16.436 14.9936C16.4825 14.8802 16.5507 14.7772 16.6366 14.6906L19.4563 11.8306C19.5419 11.7437 19.6437 11.6747 19.7558 11.6276C19.8678 11.5805 19.9879 11.5563 20.1093 11.5563C20.2306 11.5563 20.3507 11.5805 20.4628 11.6276C20.5748 11.6747 20.6766 11.7437 20.7622 11.8306L23.3424 14.4345C25.8306 16.9584 27.2279 20.3778 27.2279 23.9426C27.2279 27.5075 25.8306 30.9269 23.3424 33.4508L23.2498 33.5445L24.8268 35.1402Z" fill="#582270"/>
<path d="M12.2697 22.2283L8.44906 18.3579C7.53502 17.4339 6.86868 16.2896 6.5129 15.0328C6.15713 13.776 6.12365 12.4483 6.41563 11.1748C6.45011 11.0274 6.4292 10.8723 6.35697 10.7396C6.28473 10.6069 6.16632 10.5062 6.02475 10.4569C4.51815 9.94823 3.19784 8.99227 2.23578 7.71355C2.17069 7.62799 2.08434 7.56142 1.98553 7.52065C1.88673 7.47988 1.779 7.46636 1.67334 7.48147C1.56768 7.49658 1.46787 7.53977 1.3841 7.60665C1.30032 7.67352 1.23558 7.76169 1.19647 7.86215C0.225635 10.3548 -0.0050295 13.08 0.532773 15.7034C1.07057 18.3269 2.35346 20.7344 4.22403 22.6307L8.04689 26.5011C8.1832 26.6382 8.36758 26.7152 8.55977 26.7152C8.75196 26.7152 8.93634 26.6382 9.07265 26.5011L12.2697 23.264C12.337 23.196 12.3903 23.1153 12.4268 23.0264C12.4632 22.9376 12.4819 22.8423 12.4819 22.7461C12.4819 22.6499 12.4632 22.5547 12.4268 22.4658C12.3903 22.377 12.337 22.2963 12.2697 22.2283Z" fill="#582270"/>
<path d="M10.5478 7.41377C9.81518 8.15582 8.83381 8.59235 7.79814 8.63686C7.59394 8.6475 7.38924 8.64215 7.18585 8.62086C6.29001 8.53072 5.44729 8.14877 4.78439 7.53243C4.12149 6.91609 3.67423 6.09867 3.50985 5.20306C3.4784 5.03621 3.45802 4.86742 3.44884 4.69782C3.41243 4.10132 3.50178 3.50381 3.71095 2.94492C3.92013 2.38602 4.24436 1.87851 4.66213 1.45606C5.05015 1.05645 5.51761 0.744756 6.03357 0.541595C6.79174 0.2249 7.62568 0.142744 8.42998 0.305511C9.23429 0.468278 9.97285 0.868662 10.5523 1.45606C11.3188 2.25398 11.7472 3.32311 11.7464 4.43584C11.7455 5.54858 11.3155 6.61704 10.5478 7.41377Z" fill="#582270"/>
</svg>
